<svg xmlns="http://www.w3.org/2000/svg" viewBox="0 0 200 280">
  <rect width="200" height="280" rx="12" fill="#1a1a2e"/>
  <rect x="6" y="6" width="188" height="268" rx="9" fill="none" stroke="#a0c4ff" stroke-width="2"/>
  <!-- Scudo -->
  <path d="M100,55 L148,80 L148,140 Q148,185 100,210 Q52,185 52,140 L52,80 Z" fill="#2a4a8a" stroke="#a0c4ff" stroke-width="3"/>
  <path d="M100,70 L138,90 L138,140 Q138,175 100,196 Q62,175 62,140 L62,90 Z" fill="#1a3a6a"/>
  <!-- Croce sullo scudo -->
  <line x1="100" y1="95" x2="100" y2="175" stroke="#a0c4ff" stroke-width="5" stroke-linecap="round"/>
  <line x1="75" y1="135" x2="125" y2="135" stroke="#a0c4ff" stroke-width="5" stroke-linecap="round"/>
  <!-- Nome carta -->
  <rect x="10" y="228" width="180" height="40" rx="6" fill="#2a5a9a"/>
  <text x="100" y="254" text-anchor="middle" font-family="sans-serif" font-size="15" font-weight="bold" fill="white">Scudo di Legno</text>
  <!-- Costo mana -->
  <circle cx="24" cy="24" r="14" fill="#4ecca3"/>
  <text x="24" y="29" text-anchor="middle" font-family="sans-serif" font-size="14" font-weight="bold" fill="#1a1a2e">1</text>
</svg>