<svg xmlns="http://www.w3.org/2000/svg" viewBox="0 0 200 280">
  <rect width="200" height="280" rx="12" fill="#1a1a2e"/>
  <rect x="6" y="6" width="188" height="268" rx="9" fill="none" stroke="#ffd166" stroke-width="2"/>
  <!-- Alone fuoco esterno -->
  <circle cx="100" cy="125" r="55" fill="#7b2d00" opacity="0.5"/>
  <circle cx="100" cy="125" r="42" fill="#cc4400" opacity="0.7"/>
  <!-- Palla di fuoco -->
  <circle cx="100" cy="125" r="30" fill="#ff6600"/>
  <circle cx="100" cy="125" r="20" fill="#ffaa00"/>
  <circle cx="100" cy="125" r="10" fill="#ffee00"/>
  <!-- Fiamme in cima -->
  <path d="M85,95 Q90,70 100,60 Q110,70 115,95" fill="#ff6600" opacity="0.9"/>
  <path d="M92,90 Q96,72 100,65 Q104,72 108,90" fill="#ffaa00"/>
  <!-- Scintille -->
  <circle cx="65" cy="100" r="4" fill="#ffd166" opacity="0.9"/>
  <circle cx="138" cy="108" r="3" fill="#ffd166" opacity="0.7"/>
  <circle cx="72" cy="148" r="3" fill="#ff6600" opacity="0.8"/>
  <circle cx="132" cy="145" r="4" fill="#ff6600" opacity="0.7"/>
  <!-- Nome carta -->
  <rect x="10" y="228" width="180" height="40" rx="6" fill="#cc4400"/>
  <text x="100" y="254" text-anchor="middle" font-family="sans-serif" font-size="15" font-weight="bold" fill="white">Palla di Fuoco</text>
  <!-- Costo mana -->
  <circle cx="24" cy="24" r="14" fill="#4ecca3"/>
  <text x="24" y="29" text-anchor="middle" font-family="sans-serif" font-size="14" font-weight="bold" fill="#1a1a2e">2</text>
</svg>